<svg xmlns="http://www.w3.org/2000/svg" viewBox="0 0 400 400" fill="none" stroke="#4169e1" stroke-width="8">
  <path d="M150,350 C100,330 60,280 50,220 C40,160 60,100 100,60 C140,20 200,10 250,30 C300,50 330,100 340,150 C350,200 340,250 310,290 C280,330 230,350 180,340 C130,330 100,290 90,250 C80,210 90,170 120,140 C150,110 190,100 230,110 C270,120 300,150 310,190 C320,230 310,270 280,300 C250,330 210,340 170,330 C130,320 100,290 90,250"/>
  <circle cx="100" cy="120" r="5" fill="#4169e1"/>
  <circle cx="80" cy="180" r="5" fill="#4169e1"/>
  <circle cx="90" cy="240" r="5" fill="#4169e1"/>
  <circle cx="130" cy="290" r="5" fill="#4169e1"/>
  <circle cx="190" cy="310" r="5" fill="#4169e1"/>
  <circle cx="250" cy="290" r="5" fill="#4169e1"/>
  <circle cx="290" cy="240" r="5" fill="#4169e1"/>
  <circle cx="310" cy="180" r="5" fill="#4169e1"/>
  <circle cx="290" cy="120" r="5" fill="#4169e1"/>
  <circle cx="240" cy="80" r="5" fill="#4169e1"/>
  <circle cx="180" cy="70" r="5" fill="#4169e1"/>
  <circle cx="120" cy="90" r="5" fill="#4169e1"/>
</svg>